<svg xmlns="http://www.w3.org/2000/svg" xmlns:xlink="http://www.w3.org/1999/xlink" width="34" height="33.937" viewBox="0 0 34 33.937">
  <defs>
    <style>
      .cls-1 {
        fill-rule: evenodd;
        filter: url(#filter);
      }
    </style>
    <filter id="filter" x="645" y="925.344" width="34" height="33.937" filterUnits="userSpaceOnUse">
      <feFlood result="flood" flood-color="#2196f3"/>
      <feComposite result="composite" operator="in" in2="SourceGraphic"/>
      <feBlend result="blend" in2="SourceGraphic"/>
    </filter>
  </defs>
  <path id="Icon" class="cls-1" d="M662,948.677c5.272,0,9.562-5.234,9.562-11.665s-4.291-11.664-9.562-11.664a8.74,8.74,0,0,0-6.841,3.5,13.038,13.038,0,0,0-2.722,8.16C652.437,943.443,656.727,948.677,662,948.677Zm0-21.208c4.1,0,7.437,4.281,7.437,9.544s-3.337,9.544-7.437,9.544-7.438-4.283-7.439-9.544S657.9,927.469,662,927.469Zm7.437,19.087a1.061,1.061,0,1,0,0,2.121,7.439,7.439,0,0,1,7.437,7.422,1.063,1.063,0,0,1-1.062,1.061H648.187a1.063,1.063,0,0,1-1.062-1.061,7.439,7.439,0,0,1,7.437-7.422,1.061,1.061,0,1,0,0-2.121A9.563,9.563,0,0,0,645,956.1a3.188,3.188,0,0,0,3.187,3.182h27.625A3.188,3.188,0,0,0,679,956.1,9.563,9.563,0,0,0,669.437,946.556Z" transform="translate(-645 -925.344)"/>
</svg>
