<svg xmlns="http://www.w3.org/2000/svg" xmlns:xlink="http://www.w3.org/1999/xlink" width="33" height="28" viewBox="0 0 33 28">
  <defs>
    <style>
      .cls-1 {
        fill-rule: evenodd;
        filter: url(#filter);
      }
    </style>
    <filter id="filter" x="1299" y="363" width="33" height="28" filterUnits="userSpaceOnUse">
      <feFlood result="flood" flood-color="#fff"/>
      <feComposite result="composite" operator="in" in2="SourceGraphic"/>
      <feBlend result="blend" in2="SourceGraphic"/>
    </filter>
  </defs>
  <path id="Chat" class="cls-1" d="M1325.61,378.122V366.038a3.049,3.049,0,0,0-3.05-3.038h-20.51a3.049,3.049,0,0,0-3.05,3.038v12.084a3.049,3.049,0,0,0,3.05,3.038h0.87V384.8a1.215,1.215,0,0,0,1.22,1.217h0a1.254,1.254,0,0,0,.93-0.424l3.84-4.443h13.66A3.037,3.037,0,0,0,1325.61,378.122Zm-17.08,1.391a0.853,0.853,0,0,0-.63.283l-3.34,3.851v-3.313a0.827,0.827,0,0,0-.83-0.827h-1.68a1.4,1.4,0,0,1-1.4-1.392V366.038a1.4,1.4,0,0,1,1.4-1.391h20.51a1.4,1.4,0,0,1,1.4,1.391v12.084a1.4,1.4,0,0,1-1.4,1.391h-14.03Zm17.41,11.063a1.219,1.219,0,0,0,2.14-.8v-3.643h0.87A3.05,3.05,0,0,0,1332,383.1V371.011a3.05,3.05,0,0,0-3.05-3.038,0.824,0.824,0,1,0,0,1.647,1.4,1.4,0,0,1,1.4,1.391V383.1a1.4,1.4,0,0,1-1.4,1.391h-1.69a0.827,0.827,0,0,0-.83.826v3.314l-3.34-3.851a0.822,0.822,0,0,0-.63-0.283h-12.4a0.827,0.827,0,1,0,0,1.654h12.03Zm-13.63-19.188a0.981,0.981,0,1,1-.99.981A0.981,0.981,0,0,1,1312.31,371.388Zm3.29,0a0.981,0.981,0,1,1-.98.981A0.99,0.99,0,0,1,1315.6,371.388Zm-6.59,0a0.981,0.981,0,1,1-.98.981A0.981,0.981,0,0,1,1309.01,371.388Z" transform="translate(-1299 -363)"/>
</svg>
