<svg xmlns="http://www.w3.org/2000/svg" xmlns:xlink="http://www.w3.org/1999/xlink" width="28" height="38" viewBox="0 0 28 38">
  <defs>
    <style>
      .cls-1 {
        fill-rule: evenodd;
        filter: url(#filter);
      }
    </style>
    <filter id="filter" x="645" y="2060" width="28" height="38" filterUnits="userSpaceOnUse">
      <feFlood result="flood" flood-color="#2196f3"/>
      <feComposite result="composite" operator="in" in2="SourceGraphic"/>
      <feBlend result="blend" in2="SourceGraphic"/>
    </filter>
  </defs>
  <path id="Icon" class="cls-1" d="M659,2060a14.128,14.128,0,0,0-14,14.22,14.321,14.321,0,0,0,5.871,11.58l0.172,0.12c0.854,0.51.939,2.15,0.919,2.45l0,0.15v4.67a2.378,2.378,0,0,0,1.271,2.11l4.709,2.44A2.224,2.224,0,0,0,659,2098a2.3,2.3,0,0,0,1.053-.25l4.764-2.45a2.367,2.367,0,0,0,1.281-2.11v-4.64a3.387,3.387,0,0,1,1.42-3.12l0.517-.34A14.3,14.3,0,0,0,673,2074.22,14.128,14.128,0,0,0,659,2060Zm-4.709,28.52,0-.07h9.478l-0.009.1v2.27h-9.471v-2.3Zm4.709,7.11-4.707-2.44h9.472Zm7.529-12.35a5.188,5.188,0,0,0-2.338,2.8H653.917a4.049,4.049,0,0,0-1.69-2.21,11.9,11.9,0,0,1-4.894-9.65,11.668,11.668,0,1,1,23.334,0A11.932,11.932,0,0,1,666.529,2083.28Zm-6.362-18.54a1.185,1.185,0,0,0,0,2.37,6.144,6.144,0,0,1,5.833,6.04,1.167,1.167,0,1,0,2.333,0A8.115,8.115,0,0,0,660.167,2064.74Z" transform="translate(-645 -2060)"/>
</svg>
