<svg xmlns="http://www.w3.org/2000/svg" xmlns:xlink="http://www.w3.org/1999/xlink" width="34.063" height="34" viewBox="0 0 34.063 34">
  <defs>
    <style>
      .cls-1 {
        fill-rule: evenodd;
        opacity: 0.2;
        filter: url(#filter);
      }
    </style>
    <filter id="filter" x="231.781" y="539" width="34.063" height="34" filterUnits="userSpaceOnUse">
      <feFlood result="flood" flood-color="#fff"/>
      <feComposite result="composite" operator="in" in2="SourceGraphic"/>
      <feBlend result="blend" in2="SourceGraphic"/>
    </filter>
  </defs>
  <path id="Behance" class="cls-1" d="M246.109,553.164c0-1.3-.887-1.3-0.887-1.3h-3.651v2.792H245C245.588,554.656,246.109,554.467,246.109,553.164Zm8.456,1.492a2.238,2.238,0,0,0-2.2,1.927h4.118A1.862,1.862,0,0,0,254.565,554.656Zm-9.343,1.927h-3.649v3.344h3.232c0.055,0,.136,0,0.233,0a1.409,1.409,0,0,0,1.507-1.625C246.545,556.567,245.222,556.583,245.222,556.583ZM248.807,539a17,17,0,1,0,17.032,17A17.034,17.034,0,0,0,248.807,539Zm3.013,11.374h5.173v1.542H251.82v-1.542Zm-2.615,8.082c0,3.817-3.983,3.692-3.983,3.692H238.7v-12.51h6.523c1.983,0,3.548,1.092,3.548,3.331a2.173,2.173,0,0,1-1.913,2.38C249.379,555.352,249.205,558.459,249.205,558.459Zm9.677-.206h-6.5a2.039,2.039,0,0,0,2.207,2.178c2.083,0,2.01-1.346,2.01-1.346h2.208c0,3.572-4.291,3.327-4.291,3.327a4.442,4.442,0,0,1-4.817-4.782s0-4.807,4.817-4.807C259.593,552.823,258.881,558.253,258.882,558.253Z" transform="translate(-231.781 -539)"/>
</svg>
