<svg xmlns="http://www.w3.org/2000/svg" xmlns:xlink="http://www.w3.org/1999/xlink" width="34.063" height="34" viewBox="0 0 34.063 34">
  <defs>
    <style>
      .cls-1 {
        fill-rule: evenodd;
        opacity: 1;
        filter: url(#filter);
      }
    </style>
    <filter id="filter" x="328.531" y="539" width="34.063" height="34" filterUnits="userSpaceOnUse">
      <feFlood result="flood" flood-color="#2196f3"/>
      <feComposite result="composite" operator="in" in2="SourceGraphic"/>
      <feBlend result="blend" in2="SourceGraphic"/>
    </filter>
  </defs>
  <path id="Linkedin" class="cls-1" d="M348.68,553.584a2.724,2.724,0,0,0-2.474,1.361v-1.167H343.46c0.036,0.772,0,8.243,0,8.243h2.746v-4.6a1.86,1.86,0,0,1,.09-0.669,1.5,1.5,0,0,1,1.409-1c0.994,0,1.391.756,1.391,1.863v4.411h2.746v-4.728C351.842,554.762,350.487,553.584,348.68,553.584Zm-2.475,1.389h-0.017a0.3,0.3,0,0,0,.017-0.028v0.028Zm-7.011-1.195h2.746v8.243h-2.746v-8.243ZM345.577,539a17,17,0,1,0,17.032,17A17.033,17.033,0,0,0,345.577,539Zm9.032,24.683a1.327,1.327,0,0,1-1.344,1.308H337.773a1.327,1.327,0,0,1-1.343-1.308V548.047a1.326,1.326,0,0,1,1.343-1.307h15.492a1.326,1.326,0,0,1,1.344,1.307v15.639ZM340.586,549.8a1.428,1.428,0,1,0-.037,2.848h0.018A1.429,1.429,0,1,0,340.586,549.8Z" transform="translate(-328.531 -539)"/>
</svg>
