<svg xmlns="http://www.w3.org/2000/svg" xmlns:xlink="http://www.w3.org/1999/xlink" width="41" height="48" viewBox="0 0 41 48">
  <defs>
    <style>
      .cls-1 {
        fill-rule: evenodd;
        filter: url(#filter);
      }
    </style>
    <filter id="filter" x="1435" y="6778" width="41" height="48" filterUnits="userSpaceOnUse">
      <feFlood result="flood" flood-color="#fbc02d"/>
      <feComposite result="composite" operator="in" in2="SourceGraphic"/>
      <feBlend result="blend" in2="SourceGraphic"/>
    </filter>
  </defs>
  <path id="Trophy" class="cls-1" d="M1475.18,6782.63a3.452,3.452,0,0,0-2.64-1.23h-3.35v-1.05a2.354,2.354,0,0,0-2.35-2.35h-22.68a2.354,2.354,0,0,0-2.35,2.35v1.05h-3.35a3.473,3.473,0,0,0-3.42,4.01,18.02,18.02,0,0,0,9.11,12.83,23.454,23.454,0,0,0,1.5,3.01,14.028,14.028,0,0,0,6.42,6.07,5.088,5.088,0,0,1-3.91,5.43h-0.02a1.116,1.116,0,0,0-.85,1.08v5.1h-2.05a3.335,3.335,0,0,0-3.33,3.33v2.63a1.114,1.114,0,0,0,1.11,1.11h25.06a1.107,1.107,0,0,0,1.11-1.11v-2.63a3.327,3.327,0,0,0-3.32-3.33h-2.06v-5.1a1.1,1.1,0,0,0-.85-1.08h-0.02a5.078,5.078,0,0,1-3.9-5.48,14.063,14.063,0,0,0,6.31-6.02,23.454,23.454,0,0,0,1.5-3.01,17.993,17.993,0,0,0,9.11-12.83A3.458,3.458,0,0,0,1475.18,6782.63Zm-37.95,2.42a1.174,1.174,0,0,1,.28-0.98,1.251,1.251,0,0,1,.95-0.45h3.35v2.05a35.175,35.175,0,0,0,1.18,9.15A15.773,15.773,0,0,1,1437.23,6785.05Zm28.64,36.1a1.114,1.114,0,0,1,1.11,1.11v1.52h-22.85v-1.52a1.114,1.114,0,0,1,1.11-1.11h20.63Zm-4.28-6.21v3.99h-12.08v-3.99h12.08Zm-9.17-2.22a8.178,8.178,0,0,0,.75-0.98,7.348,7.348,0,0,0,1.14-3.82,7.847,7.847,0,0,0,1.19.09,9.364,9.364,0,0,0,1.3-.1,7.3,7.3,0,0,0,1.9,4.81h-6.28Zm14.56-27.05a28.826,28.826,0,0,1-3.53,14.44c-2.17,3.66-5,5.68-7.95,5.68s-5.78-2.02-7.95-5.68a28.826,28.826,0,0,1-3.53-14.44v-5.32a0.135,0.135,0,0,1,.14-0.13h22.68a0.135,0.135,0,0,1,.14.13v5.32Zm6.79-.62a15.773,15.773,0,0,1-5.76,9.77,35.175,35.175,0,0,0,1.18-9.15v-2.05h3.35a1.251,1.251,0,0,1,.95.45A1.174,1.174,0,0,1,1473.77,6785.05Zm-11.54,4.36a1.1,1.1,0,0,0-.9-0.76l-3.34-.49-1.5-3.04a1.108,1.108,0,0,0-1.98,0l-1.5,3.04-3.34.49a1.109,1.109,0,0,0-.62,1.89l2.42,2.37-0.57,3.34a1.113,1.113,0,0,0,1.61,1.17l2.99-1.58,2.99,1.58a1.177,1.177,0,0,0,.52.13,1.13,1.13,0,0,0,.65-0.22,1.113,1.113,0,0,0,.44-1.08l-0.57-3.34,2.42-2.37A1.1,1.1,0,0,0,1462.23,6789.41Zm-4.67,2.31a1.139,1.139,0,0,0-.32.99l0.29,1.69-1.51-.8a1.187,1.187,0,0,0-1.04,0l-1.51.8,0.29-1.69a1.139,1.139,0,0,0-.32-0.99l-1.23-1.2,1.7-.24a1.116,1.116,0,0,0,.83-0.61l0.76-1.54,0.76,1.54a1.116,1.116,0,0,0,.83.61l1.7,0.24Z" transform="translate(-1435 -6778)"/>
</svg>
