<svg xmlns="http://www.w3.org/2000/svg" xmlns:xlink="http://www.w3.org/1999/xlink" width="34.062" height="34" viewBox="0 0 34.062 34">
  <defs>
    <style>
      .cls-1 {
        fill-rule: evenodd;
        opacity: 1;
        filter: url(#filter);
      }
    </style>
    <filter id="filter" x="376.938" y="539" width="34.062" height="34" filterUnits="userSpaceOnUse">
      <feFlood result="flood" flood-color="#2196f3"/>
      <feComposite result="composite" operator="in" in2="SourceGraphic"/>
      <feBlend result="blend" in2="SourceGraphic"/>
    </filter>
  </defs>
  <path id="Dribble" class="cls-1" d="M393.456,553.006a55.122,55.122,0,0,0-3.392-5.254,9.137,9.137,0,0,0-5.043,6.367A33.819,33.819,0,0,0,393.456,553.006Zm-1.682-5.86a0.111,0.111,0,0,1-.029.007l0.027,0Zm8.223,2.01a9.146,9.146,0,0,0-8.188-2.017,46.236,46.236,0,0,1,3.415,5.32A9.959,9.959,0,0,0,400,549.156Zm-4.48,8.335c-5.394,1.876-7.153,5.658-7.168,5.692a9.132,9.132,0,0,0,9.181,1.211,37.893,37.893,0,0,0-1.952-6.922ZM394.6,556.07c0.119-.039.239-0.076,0.359-0.109-0.228-.519-0.479-1.039-0.741-1.551a33.5,33.5,0,0,1-9.38,1.3c0,0.1-.008.191-0.008,0.289a9.079,9.079,0,0,0,2.34,6.093l0,0A14.444,14.444,0,0,1,394.6,556.07ZM393.962,539A17,17,0,1,0,411,556,17.033,17.033,0,0,0,393.962,539Zm10.481,19.147a10.666,10.666,0,0,1-.623,2.006,10.689,10.689,0,0,1-2.293,3.393,10.677,10.677,0,0,1-1.582,1.3,10.706,10.706,0,0,1-15.841-4.7,10.716,10.716,0,0,1-.624-6.307,10.654,10.654,0,0,1,1.61-3.82,10.729,10.729,0,0,1,11.026-4.489,10.653,10.653,0,0,1,3.829,1.606,10.805,10.805,0,0,1,1.582,1.3A10.671,10.671,0,0,1,404.443,558.15Zm-7.153-1.1a39.374,39.374,0,0,1,1.778,6.513,9.124,9.124,0,0,0,3.916-6.115A13.247,13.247,0,0,0,397.29,557.049Zm-1.363-3.234c0.213,0.435.418,0.877,0.608,1.323,0.068,0.157.132,0.316,0.2,0.471a21.235,21.235,0,0,1,6.364.3,9.059,9.059,0,0,0-2.078-5.7A11.721,11.721,0,0,1,395.927,553.815Z" transform="translate(-376.938 -539)"/>
</svg>
