<svg xmlns="http://www.w3.org/2000/svg" xmlns:xlink="http://www.w3.org/1999/xlink" width="38" height="31" viewBox="0 0 38 31">
  <defs>
    <style>
      .cls-1 {
        fill-rule: evenodd;
        filter: url(#filter);
      }
    </style>
    <filter id="filter" x="645" y="3210" width="38" height="31" filterUnits="userSpaceOnUse">
      <feFlood result="flood" flood-color="#2196f3"/>
      <feComposite result="composite" operator="in" in2="SourceGraphic"/>
      <feBlend result="blend" in2="SourceGraphic"/>
    </filter>
  </defs>
  <path id="Icon" class="cls-1" d="M682.562,3219.06l-18.208-8.98a0.8,0.8,0,0,0-.708,0l-18.208,8.98a0.77,0.77,0,0,0,0,1.39l6.027,2.98v8.96c0,3.68,5.506,6.57,12.535,6.57s12.535-5.89,12.535-9.57v-5.96l2.1-1.04v8.69a2.415,2.415,0,0,0-.264,4.49l-1.682,4.37a0.771,0.771,0,0,0,.089.72,0.8,0.8,0,0,0,.652.34h4a0.8,0.8,0,0,0,.652-0.34,0.773,0.773,0,0,0,.088-0.72l-1.681-4.37a2.414,2.414,0,0,0-.265-4.49v-9.47l2.34-1.16A0.77,0.77,0,0,0,682.562,3219.06ZM671,3235c-2.11,1.04-3.984,2.4-7,2.4a18.444,18.444,0,0,1-7.95-1.62c-1.907-.94-3-2.17-3-3.39v-8.18l10.6,5.22a0.823,0.823,0,0,0,.708,0l10.6-5.22v5.18h0C674.951,3230.61,672.908,3234.06,671,3235Zm7.579,4.44,0.851-2.21,0.851,2.21h-1.7Zm1.729-6.06a0.878,0.878,0,1,1-.882-0.87h0c0.031,0.03,0,0,0,0A0.873,0.873,0,0,1,680.308,3233.38Zm-1.039-13.05-15.2-1.35a0.789,0.789,0,0,0-.86.71,0.778,0.778,0,0,0,.717.84l12.648,1.13L664,3227.86l-16.438-8.1L664,3211.65l16.438,8.11Z" transform="translate(-645 -3210)"/>
</svg>
