<svg xmlns="http://www.w3.org/2000/svg" xmlns:xlink="http://www.w3.org/1999/xlink" width="22.469" height="22.47" viewBox="0 0 22.469 22.47">
  <defs>
    <style>
      .cls-1 {
        fill-rule: evenodd;
        filter: url(#filter);
      }
    </style>
    <filter id="filter" x="676.125" y="3431.91" width="22.469" height="22.47" filterUnits="userSpaceOnUse">
      <feFlood result="flood" flood-color="#2196f3"/>
      <feComposite result="composite" operator="in" in2="SourceGraphic"/>
      <feBlend result="blend" in2="SourceGraphic"/>
    </filter>
  </defs>
  <path id="Icon" class="cls-1" d="M693.16,3449.36c-0.007.01-.015,0.01-0.023,0.02s-0.015.01-.022,0.02-0.015.01-.023,0.01-0.017.01-.025,0.02-0.015.01-.023,0.01-0.018.01-.027,0.02a0.024,0.024,0,0,0-.023.01c-0.01,0-.019.01-0.029,0.01s-0.016.01-.024,0.01a0.037,0.037,0,0,0-.03.01h-0.024c-0.012,0-.023.01-0.034,0.01h-0.074a33.96,33.96,0,0,0-10.857,2.53,44.159,44.159,0,0,0-4.867,2.22,0.583,0.583,0,0,1-.708-0.03,0.011,0.011,0,0,0-.012-0.01c0-.01-0.007-0.01-0.011-0.01s-0.011-.01-0.017-0.02a0.034,0.034,0,0,1-.019-0.02c-0.007-.01-0.013-0.01-0.019-0.02l-0.02-.03a0.039,0.039,0,0,1-.014-0.02l-0.02-.03a0.07,0.07,0,0,1-.008-0.01s0-.01,0-0.01-0.011-.02-0.016-0.03-0.006-.01-0.009-0.02,0-.01-0.008-0.02a0.593,0.593,0,0,1-.033-0.14h0c0-.01,0-0.03,0-0.04s0-.01,0-0.02a0.134,0.134,0,0,1,0-.02c0-.01,0-0.02,0-0.04h0a0.808,0.808,0,0,1,.032-0.14,0.038,0.038,0,0,0,.008-0.02,0.036,0.036,0,0,0,.009-0.02c0-.01.01-0.02,0.016-0.03h0a45.518,45.518,0,0,0,2.26-4.93,34.174,34.174,0,0,0,2.521-10.86v-0.01a0.3,0.3,0,0,1,0-.04,0.08,0.08,0,0,1,0-.02c0-.01,0-0.03.006-0.04a0.067,0.067,0,0,0,.006-0.02c0-.01,0-0.02.008-0.03s0.006-.02.008-0.03a0.034,0.034,0,0,0,.011-0.02c0-.01.008-0.02,0.011-0.03a0.034,0.034,0,0,1,.014-0.02c0-.01.009-0.02,0.014-0.03s0.01-.01.016-0.02l0.016-.03a0.035,0.035,0,0,0,.017-0.02c0.007-.01.014-0.01,0.022-0.02s0.008-.01.012-0.01,0-.01,0-0.01,0.016-.01.024-0.02,0.013-.01.019-0.02a0.044,0.044,0,0,0,.025-0.02c0.007,0,.014-0.01.021-0.01s0.017-.01.026-0.02a0.024,0.024,0,0,0,.023-0.01c0.009,0,.02-0.01.029-0.01a0.021,0.021,0,0,1,.021-0.01,0.049,0.049,0,0,1,.035-0.01,0.017,0.017,0,0,1,.018-0.01c0.012,0,.025-0.01.037-0.01h0.018c0.011,0,.023-0.01.035-0.01h0.135a0.048,0.048,0,0,1,.035.01h0.02c0.012,0,.024.01,0.036,0.01h0.017c0.013,0.01.025,0.01,0.037,0.02h0.016c0.012,0.01.024,0.01,0.035,0.02a0.015,0.015,0,0,1,.016.01,0.06,0.06,0,0,1,.035.02,0.012,0.012,0,0,1,.013.01l0.04,0.03h0a0.147,0.147,0,0,1,.044.04h0a3.615,3.615,0,0,0,5.117.02l0.111-.11-0.7-.7a0.58,0.58,0,0,1,0-.82l3.644-3.64a0.573,0.573,0,0,1,.82,0l7.456,7.46a0.58,0.58,0,0,1,0,.82L694.78,3444a0.582,0.582,0,0,1-.82,0l-0.7-.7-0.111.11a3.627,3.627,0,0,0,.02,5.12h0a0.138,0.138,0,0,1,.04.04s0,0,0,.01a0.122,0.122,0,0,1,.029.04s0.006,0,.008.01a0.273,0.273,0,0,1,.021.03c0,0.01,0,.01.008,0.02s0.011,0.02.016,0.03a0.056,0.056,0,0,0,.007.02,0.2,0.2,0,0,1,.012.04,0.038,0.038,0,0,1,0,.02,0.171,0.171,0,0,1,.009.03,0.142,0.142,0,0,1,0,.02,0.235,0.235,0,0,1,0,.04,0.117,0.117,0,0,1,0,.02,0.136,0.136,0,0,0,0,.02,0.016,0.016,0,0,1,0,.01c0,0.01,0,.02,0,0.03s0,0.02,0,.03,0,0.01,0,.02,0,0.02,0,.04c0,0,0,.01,0,0.01a0.172,0.172,0,0,1-.009.04,0.152,0.152,0,0,1-.006.02,0.188,0.188,0,0,1-.012.03,0.036,0.036,0,0,1-.009.02l-0.014.03-0.013.03c0,0.01-.01.01-0.015,0.02a0.034,0.034,0,0,1-.015.02l-0.018.03a0.039,0.039,0,0,0-.017.02,0.044,0.044,0,0,0-.022.02s0,0,0,.01A0.014,0.014,0,0,0,693.16,3449.36Zm-7.807-4.21a0.6,0.6,0,1,0,0-.86A0.607,0.607,0,0,0,685.353,3445.15Zm9.012-2.38,1-1.01-3.316-3.31a0.58,0.58,0,0,1,0-.82,0.573,0.573,0,0,1,.82,0l3.317,3.32,1-1.01-6.632-6.63-2.828,2.82Zm-2.039-.19,0.111-.11-4.411-4.41-0.111.11a4.757,4.757,0,0,1-5.829.7,37.834,37.834,0,0,1-2.541,10.14c-0.255.65-.523,1.3-0.8,1.93l5.449-5.45a1.764,1.764,0,1,1,2.845.49,1.742,1.742,0,0,1-2.021.33l-5.431,5.43c0.625-.27,1.261-0.53,1.908-0.79a38.069,38.069,0,0,1,10.134-2.54A4.778,4.778,0,0,1,692.326,3442.58Z" transform="translate(-676.125 -3431.91)"/>
</svg>
