<svg xmlns="http://www.w3.org/2000/svg" xmlns:xlink="http://www.w3.org/1999/xlink" width="34.063" height="34" viewBox="0 0 34.063 34">
  <defs>
    <style>
      .cls-1 {
        fill-rule: evenodd;
        opacity: 1;
        filter: url(#filter);
      }
    </style>
    <filter id="filter" x="280.156" y="539" width="34.063" height="34" filterUnits="userSpaceOnUse">
      <feFlood result="flood" flood-color="#2196f3"/>
      <feComposite result="composite" operator="in" in2="SourceGraphic"/>
      <feBlend result="blend" in2="SourceGraphic"/>
    </filter>
  </defs>
  <path id="Instragram" class="cls-1" d="M297.191,559.4a3.4,3.4,0,1,0-3.41-3.4A3.411,3.411,0,0,0,297.191,559.4Zm7.446-7.564V548.56h-0.428l-2.857.009,0.012,3.278ZM297.192,539a17,17,0,1,0,17.032,17A17.034,17.034,0,0,0,297.192,539Zm9.686,15.012v7.914a3.743,3.743,0,0,1-3.743,3.737H291.249a3.743,3.743,0,0,1-3.744-3.737v-11.86a3.743,3.743,0,0,1,3.744-3.735h11.885a3.743,3.743,0,0,1,3.744,3.735v3.946ZM302.49,556a5.3,5.3,0,0,1-10.6,0,5.24,5.24,0,0,1,.39-1.984h-2.892v7.914a1.854,1.854,0,0,0,1.856,1.851h11.885a1.855,1.855,0,0,0,1.857-1.851v-7.914H302.1A5.223,5.223,0,0,1,302.49,556Z" transform="translate(-280.156 -539)"/>
</svg>
